<?xml version="1.0" standalone="no"?>
<svg viewBox="0 0 200 200" xmlns="http://www.w3.org/2000/svg">
  <path fill="#FF0066" d="M25.4,-44.2C36.4,-37.7,51.1,-37.8,54.9,-31.6C58.8,-25.3,51.8,-12.7,51.1,-0.4C50.4,11.8,55.9,23.6,53.2,31.9C50.5,40.1,39.5,44.8,29.3,45.4C19,46.1,9.5,42.9,-1.6,45.7C-12.7,48.5,-25.4,57.3,-31.2,54C-36.9,50.7,-35.6,35.2,-42.7,24.2C-49.8,13.2,-65.2,6.6,-71.6,-3.7C-78,-14,-75.3,-27.9,-64.7,-32.9C-54.1,-37.8,-35.6,-33.7,-23.5,-39.6C-11.4,-45.4,-5.7,-61.3,0.8,-62.6C7.2,-63.9,14.4,-50.7,25.4,-44.2Z" transform="translate(100 100)" />
</svg>
